<svg width="131" height="94" viewBox="0 0 131 94" fill="none" xmlns="http://www.w3.org/2000/svg">
<path d="M61.4343 3.78666C55.5719 3.80869 50.1396 4.85389 47.4909 5.58221C47.4909 5.58221 71.5174 9.16412 73.5161 23.7352C55.2584 0.609573 35.3437 28.5777 35.3437 28.5777C39.4958 27.6208 51.3853 24.7806 59.3246 25.9787C64.7566 26.7985 70.0518 31.1249 69.8232 31.0703C56.8781 33.8683 36.3125 84.4814 39.8047 88.5917C42.9185 91.7349 46.0357 90.6627 49.15 89.0682C50.6915 78.3417 62.7211 31.2793 77.4413 35.0784C77.4434 35.0789 77.4455 35.0778 77.4476 35.0784C78.6868 35.4511 79.8592 36.1047 79.9228 37.1034C80.044 39.006 78.6459 42.1155 78.9761 44.2751C79.7414 49.2865 80.8584 51.0296 82.4828 52.7779C86.3624 50.8621 90.0744 43.955 90.8422 40.3736C94.3185 41.7109 99.9065 44.8083 104.465 56.3119C106.849 45.532 103.412 37.0291 92.1289 33.2535C97.015 31.3982 118.282 40.7863 120.877 46.0187C123.403 36.5837 105.539 25.0382 90.666 25.6518C93.5174 24.9982 96.6509 25.7619 99.6327 23.8329C103.634 21.2446 108.3 19.0154 112.648 16.621C98.0252 11.0333 84.5305 13.7923 83.5802 19.5759C82.8335 6.73977 71.4946 3.74939 61.4341 3.78684L61.4343 3.78666Z" fill="white"/>
<path d="M7.704 85.944C7.704 86.888 6.784 87.36 4.944 87.36C4.544 87.36 4.304 87.16 4.224 86.76C4.16 86.344 4.128 85.832 4.128 85.224C4.128 84.616 4.168 83.968 4.248 83.28C4.344 82.576 4.464 81.816 4.608 81C4.88 79.432 5.264 77.744 5.76 75.936C6.272 74.112 6.776 72.704 7.272 71.712C6.264 71.776 5.264 71.96 4.272 72.264C3.28 72.552 2.576 72.76 2.16 72.888C1.744 73 1.4 73.056 1.128 73.056C0.856 73.056 0.72 72.968 0.72 72.792C0.72 72.584 0.88 72.28 1.2 71.88C1.52 71.464 1.976 71.048 2.568 70.632C4.072 69.608 5.744 69.088 7.584 69.072L15.48 69.144C15.912 69.144 16.128 69.312 16.128 69.648C16.128 69.744 16.064 69.92 15.936 70.176C15.808 70.416 15.696 70.68 15.6 70.968C15.392 71.544 14.952 71.832 14.28 71.832C13.624 71.832 12.048 71.784 9.552 71.688C9.488 72.392 9.36 73.296 9.168 74.4C8.976 75.488 8.768 76.68 8.544 77.976C8 81.288 7.72 83.944 7.704 85.944ZM31.5782 81.336C31.8502 81.336 31.9862 81.704 31.9862 82.44C31.9862 82.84 31.8182 83.328 31.4822 83.904C31.1462 84.464 30.7062 84.984 30.1622 85.464C29.6342 85.928 29.0422 86.312 28.3862 86.616C27.7302 86.92 27.1062 87.072 26.5142 87.072C25.9222 87.072 25.4582 86.96 25.1222 86.736C24.7862 86.512 24.5222 86.208 24.3302 85.824C24.0582 85.28 23.8342 84.248 23.6582 82.728C23.4822 81.192 23.3062 80.12 23.1302 79.512C22.7142 79.432 22.3462 79.272 22.0262 79.032C21.7222 78.776 21.5702 78.472 21.5702 78.12C21.5702 77.752 21.7302 77.488 22.0502 77.328C22.3862 77.168 22.7622 77.088 23.1782 77.088C23.6102 77.088 23.9942 77.192 24.3302 77.4C24.7782 77.032 25.1382 76.6 25.4102 76.104C25.6982 75.592 25.8422 74.912 25.8422 74.064C25.8422 73.2 25.5542 72.512 24.9782 72C24.4022 71.488 23.5542 71.232 22.4342 71.232C21.3302 71.232 20.4822 71.32 19.8902 71.496C19.2982 71.672 18.7862 71.864 18.3542 72.072C17.9382 72.28 17.5622 72.472 17.2262 72.648C16.9062 72.824 16.6022 72.912 16.3142 72.912C16.0262 72.912 15.8822 72.824 15.8822 72.648C15.8822 72.456 16.0342 72.152 16.3382 71.736C16.6422 71.32 17.0902 70.904 17.6822 70.488C19.1702 69.448 20.8502 68.936 22.7222 68.952C24.5942 68.952 26.1382 69.304 27.3542 70.008C28.7782 70.84 29.4902 72.088 29.4902 73.752C29.5062 75.128 29.1462 76.272 28.4102 77.184C27.6742 78.096 26.7622 78.752 25.6742 79.152C25.9142 79.68 26.1062 80.248 26.2502 80.856C26.4102 81.464 26.5622 82.024 26.7062 82.536C26.8502 83.048 27.0102 83.472 27.1862 83.808C27.3782 84.144 27.6022 84.312 27.8582 84.312C28.1302 84.312 28.4502 84.16 28.8182 83.856C29.2022 83.536 29.5782 83.192 29.9462 82.824C30.3142 82.456 30.6422 82.12 30.9302 81.816C31.2342 81.496 31.4502 81.336 31.5782 81.336ZM21.1382 72.696C21.3462 72.696 21.4502 72.968 21.4502 73.512C21.4502 74.056 21.4182 74.568 21.3542 75.048C21.2102 75.976 21.0262 76.84 20.8022 77.64C20.2262 79.816 19.9382 81.088 19.9382 81.456V84.984C19.9382 85.848 19.6102 86.44 18.9542 86.76C18.6502 86.904 18.3542 87.04 18.0662 87.168C17.7942 87.296 17.4822 87.36 17.1302 87.36C16.4582 87.36 16.1222 86.592 16.1222 85.056C16.1222 83.504 16.4822 81.552 17.2022 79.2C17.9222 76.848 18.6742 75.056 19.4582 73.824C19.6182 73.584 19.8502 73.336 20.1542 73.08C20.4582 72.824 20.7862 72.696 21.1382 72.696ZM50.6623 81.336C50.9343 81.336 51.0703 81.704 51.0703 82.44C51.0703 82.84 50.9023 83.328 50.5663 83.904C50.2303 84.464 49.7903 84.984 49.2463 85.464C48.7183 85.928 48.1263 86.312 47.4703 86.616C46.8143 86.92 46.1743 87.072 45.5503 87.072C44.6063 87.072 43.9503 86.84 43.5823 86.376C43.2303 85.896 43.0543 85.2 43.0543 84.288C43.0543 83.36 43.4143 81.776 44.1343 79.536C41.9263 79.44 40.3183 79.392 39.3103 79.392H38.9743C38.6863 81.168 38.5423 83.032 38.5423 84.984C38.5423 85.848 38.2143 86.44 37.5583 86.76C37.2543 86.904 36.9583 87.04 36.6703 87.168C36.3983 87.296 36.1023 87.36 35.7823 87.36C34.9823 87.36 34.5823 86.64 34.5823 85.2C34.5823 83.76 34.9103 81.912 35.5663 79.656C34.8623 79.736 34.2383 79.816 33.6943 79.896C33.1663 79.976 32.7503 80.016 32.4463 80.016C32.1423 80.016 31.9903 79.936 31.9903 79.776C31.9903 79.296 32.3823 78.808 33.1663 78.312C33.9663 77.816 35.0463 77.44 36.4063 77.184C37.9103 73.36 39.7503 70.808 41.9263 69.528C42.7263 69.048 43.5743 68.808 44.4703 68.808C46.0703 68.824 47.2223 69.256 47.9263 70.104C48.6463 70.952 49.0063 72.08 49.0063 73.488C49.0223 74.88 48.5983 76.696 47.7343 78.936C47.4143 79.8 47.1183 80.584 46.8463 81.288C46.5743 81.992 46.4383 82.56 46.4383 82.992C46.4383 83.424 46.4703 83.752 46.5343 83.976C46.5983 84.2 46.7503 84.312 46.9903 84.312C47.4223 84.312 48.4383 83.48 50.0383 81.816C50.3263 81.496 50.5343 81.336 50.6623 81.336ZM45.5503 74.184C45.5503 72.792 45.0303 72.096 43.9903 72.096C42.9343 72.096 42.0223 72.544 41.2543 73.44C40.5023 74.32 39.9183 75.504 39.5023 76.992L44.9503 77.064C45.3503 75.784 45.5503 74.824 45.5503 74.184ZM51.9418 72.072C51.7658 72.216 51.5818 72.352 51.3898 72.48C51.1978 72.608 50.9738 72.672 50.7178 72.672C50.4778 72.672 50.3578 72.456 50.3578 72.024C50.3578 71.144 50.7658 70.424 51.5818 69.864C52.3658 69.288 53.3018 69 54.3898 69C55.4778 69 56.2938 69.448 56.8378 70.344C57.2538 71 57.4618 71.744 57.4618 72.576C57.4618 73.392 57.3738 74.192 57.1978 74.976C57.0218 75.744 56.8298 76.536 56.6218 77.352C56.4298 78.168 56.2458 79 56.0698 79.848C55.8938 80.68 55.8058 81.368 55.8058 81.912C55.8058 82.44 55.8298 82.792 55.8778 82.968C56.1018 83.672 56.7098 84.024 57.7018 84.024C58.4538 84.024 59.1578 83.808 59.8138 83.376C61.6218 82.192 62.7738 79.848 63.2698 76.344C61.9738 76.264 60.9738 75.856 60.2698 75.12C59.5818 74.368 59.2378 73.36 59.2378 72.096C59.2378 71.184 59.5338 70.416 60.1258 69.792C60.7178 69.168 61.5258 68.856 62.5498 68.856C63.5738 68.84 64.3418 69.192 64.8538 69.912C65.3658 70.632 65.6218 71.608 65.6218 72.84V73.392C65.6218 73.584 65.6138 73.768 65.5978 73.944C65.8698 73.816 66.1018 73.688 66.2938 73.56C66.4858 73.416 66.6778 73.344 66.8698 73.344C67.1898 73.344 67.3498 73.48 67.3498 73.752C67.3498 74.28 67.1818 74.744 66.8458 75.144C66.5258 75.528 66.0858 75.824 65.5258 76.032C65.3658 78.096 65.1018 79.672 64.7338 80.76C64.3818 81.848 63.9978 82.752 63.5818 83.472C63.1818 84.192 62.6618 84.824 62.0218 85.368C60.6778 86.504 58.9418 87.072 56.8138 87.072C55.3898 87.072 54.2538 86.72 53.4058 86.016C52.5738 85.296 52.1578 84.168 52.1578 82.632C52.1578 82.264 52.3578 81.296 52.7578 79.728C53.1738 78.144 53.5018 76.848 53.7418 75.84C53.9818 74.816 54.1018 74.008 54.1018 73.416C54.1018 72.12 53.7738 71.472 53.1178 71.472C52.8938 71.472 52.6858 71.536 52.4938 71.664C52.3178 71.792 52.1338 71.928 51.9418 72.072ZM63.4858 73.872C63.5178 73.424 63.5338 72.968 63.5338 72.504C63.5338 71.464 63.2938 70.944 62.8138 70.944C62.4778 70.928 62.3098 71.192 62.3098 71.736C62.3098 72.728 62.7018 73.44 63.4858 73.872ZM76.422 76.296C77.814 76.296 78.51 76.648 78.51 77.352C78.51 78.168 77.71 78.576 76.11 78.576C75.758 78.576 75.374 78.512 74.958 78.384C74.494 78.704 74.134 79.104 73.878 79.584C73.638 80.064 73.518 80.76 73.518 81.672C73.518 82.568 73.87 83.232 74.574 83.664C75.294 84.096 76.134 84.312 77.094 84.312C78.07 84.312 78.854 84.16 79.446 83.856C80.054 83.536 80.582 83.192 81.03 82.824C81.478 82.456 81.838 82.12 82.11 81.816C82.398 81.496 82.606 81.336 82.734 81.336C82.862 81.336 82.966 81.424 83.046 81.6C83.126 81.76 83.166 81.976 83.166 82.248C83.166 83.528 82.454 84.656 81.03 85.632C79.622 86.592 77.934 87.072 75.966 87.072C72.894 87.072 70.902 86.184 69.99 84.408C69.67 83.784 69.51 83.032 69.51 82.152C69.51 79.864 70.654 78.264 72.942 77.352C71.774 76.536 71.19 75.304 71.19 73.656C71.19 72.872 71.406 72.144 71.838 71.472C71.438 71.024 71.11 70.552 70.854 70.056C70.614 69.56 70.494 69.184 70.494 68.928C70.494 68.48 70.654 68.256 70.974 68.256C71.198 68.256 71.47 68.432 71.79 68.784C72.126 69.12 72.398 69.392 72.606 69.6C72.814 69.808 73.03 69.976 73.254 70.104C74.614 69.272 76.214 68.856 78.054 68.856C79.894 68.856 81.118 69.368 81.726 70.392C81.95 70.776 82.062 71.248 82.062 71.808C82.062 72.656 81.694 73.368 80.958 73.944C80.222 74.52 79.254 74.808 78.054 74.808C76.854 74.808 75.734 74.424 74.694 73.656C74.678 73.72 74.67 73.784 74.67 73.848V74.376C74.67 74.664 74.758 75.008 74.934 75.408C75.126 75.792 75.358 76.112 75.63 76.368C75.87 76.32 76.134 76.296 76.422 76.296ZM79.398 72.168C79.398 71.544 78.886 71.232 77.862 71.232C76.838 71.232 76.014 71.544 75.39 72.168C76.254 72.696 77.134 72.96 78.03 72.96C78.942 72.96 79.398 72.696 79.398 72.168ZM98.1491 81.336C98.3891 81.336 98.5091 81.608 98.5091 82.152C98.5091 83.288 97.9811 84.392 96.9251 85.464C95.8691 86.52 94.5811 87.056 93.0611 87.072C91.9891 87.072 90.7491 86.648 89.3411 85.8C88.3331 86.872 87.0771 87.408 85.5731 87.408C84.5811 87.408 83.8531 87.16 83.3891 86.664C82.9251 86.168 82.6931 85.512 82.6931 84.696C82.6931 83.88 82.9891 83.272 83.5811 82.872C84.1891 82.456 84.9571 82.248 85.8851 82.248C86.3811 82.248 86.8451 82.272 87.2771 82.32C87.2771 80.368 87.4931 78.464 87.9251 76.608C87.3971 76.336 86.9411 76.032 86.5571 75.696C86.1891 75.36 86.0051 75.096 86.0051 74.904C86.0051 74.392 86.1171 74.136 86.3411 74.136C86.6611 74.136 86.9891 74.232 87.3251 74.424C87.6771 74.6 88.0531 74.736 88.4531 74.832C89.4451 71.968 90.8051 70.12 92.5331 69.288C93.1411 69 93.7811 68.856 94.4531 68.856C96.9811 68.856 98.2451 69.92 98.2451 72.048C98.2451 73.264 97.7891 74.312 96.8771 75.192C95.6131 76.408 93.6931 77.048 91.1171 77.112C90.9411 78.456 90.8531 80.048 90.8531 81.888C90.8531 82.336 90.7971 82.84 90.6851 83.4C91.2451 83.688 91.7891 83.952 92.3171 84.192C92.8451 84.432 93.4931 84.552 94.2611 84.552C94.6611 84.552 95.0531 84.384 95.4371 84.048C95.8371 83.712 96.2051 83.344 96.5411 82.944C96.8931 82.544 97.2051 82.176 97.4771 81.84C97.7491 81.504 97.9731 81.336 98.1491 81.336ZM94.4051 71.208C93.0611 71.208 92.0851 72.488 91.4771 75.048C92.6291 74.952 93.5971 74.632 94.3811 74.088C95.1811 73.528 95.5811 72.968 95.5811 72.408C95.5811 71.608 95.1891 71.208 94.4051 71.208ZM85.0211 84.864C85.0371 85.312 85.3491 85.536 85.9571 85.536C86.5651 85.536 86.9491 85.184 87.1091 84.48C86.6611 84.256 86.2931 84.144 86.0051 84.144C85.3651 84.144 85.0371 84.384 85.0211 84.864Z" fill="black"/>
<path d="M45.12 51.256C45.12 50.6 44.944 50.096 44.592 49.744C45.184 49.312 45.888 49.096 46.704 49.096C48.064 49.096 48.744 49.824 48.744 51.28C48.744 51.504 48.696 51.904 48.6 52.48L45.648 64.12C45.232 66.216 44.208 67.264 42.576 67.264C40.912 67.264 39.856 66.216 39.408 64.12L36.936 54.64L34.368 64.12C34.112 65.288 33.728 66.104 33.216 66.568C32.72 67.032 32.032 67.264 31.152 67.264C30.288 67.264 29.616 67.032 29.136 66.568C28.672 66.104 28.32 65.288 28.08 64.12L25.296 52.216C25.04 51.128 24.656 50.424 24.144 50.104C24.8 49.432 25.544 49.096 26.376 49.096C27.208 49.096 27.848 49.312 28.296 49.744C28.76 50.16 29.088 50.904 29.28 51.976L31.344 63.232L34.56 51.352C34.8 50.52 35.128 49.936 35.544 49.6C35.96 49.264 36.52 49.096 37.224 49.096C38.68 49.096 39.584 49.848 39.936 51.352L42.744 63.424L45.024 52.144C45.088 51.824 45.12 51.528 45.12 51.256ZM56.2764 63.928H60.1404C61.2764 63.928 62.2844 63.608 63.1644 62.968C63.6764 63.4 63.9324 63.968 63.9324 64.672C63.9324 65.376 63.6764 65.944 63.1644 66.376C62.6524 66.792 61.8844 67 60.8604 67H55.6524C54.0524 67 52.8764 66.656 52.1244 65.968C51.3884 65.28 51.0204 64.192 51.0204 62.704V52.048C51.0204 51.232 50.7484 50.68 50.2044 50.392C50.7964 49.688 51.5244 49.336 52.3884 49.336H60.4044C61.6684 49.336 62.5724 49.504 63.1164 49.84C63.6604 50.16 63.9324 50.64 63.9324 51.28C63.9324 51.92 63.6764 52.456 63.1644 52.888C62.3964 52.584 61.3884 52.432 60.1404 52.432H54.7884V56.032H58.1004C59.3804 56.032 60.2844 56.168 60.8124 56.44C61.3564 56.712 61.6284 57.176 61.6284 57.832C61.6284 58.472 61.3724 58.992 60.8604 59.392C60.2844 59.2 59.2764 59.104 57.8364 59.104H54.7884V62.224C54.7884 63.36 55.2844 63.928 56.2764 63.928Z" fill="black"/>
</svg>